<svg viewBox="0 0 2000 2000" xmlns="http://www.w3.org/2000/svg"><path d="M4.0 1183.0 4.0 1184.0 3.0 1185.0 2.0 1185.0 2.0 1288.0 3.0 1289.0 1140.0 1289.0 1140.0 1288.0 1141.0 1287.0 1141.0 1184.0 1140.0 1183.0 Z" fill="none" stroke="blue" stroke-width="3"/><path d="M3.0 919.0 2.0 920.0 2.0 1178.0 3.0 1178.0 4.0 1179.0 636.0 1179.0 636.0 1178.0 637.0 1177.0 638.0 1177.0 638.0 1053.0 639.0 1052.0 640.0 1052.0 640.0 1039.0 639.0 1039.0 638.0 1038.0 638.0 921.0 637.0 921.0 636.0 920.0 636.0 919.0 Z" fill="none" stroke="blue" stroke-width="3"/><path d="M4.0 1561.0 3.0 1562.0 2.0 1562.0 2.0 1717.0 3.0 1717.0 4.0 1718.0 446.0 1718.0 446.0 1717.0 447.0 1716.0 448.0 1716.0 448.0 1562.0 447.0 1561.0 Z" fill="none" stroke="blue" stroke-width="3"/><path d="M1096.0 919.0 1096.0 920.0 1095.0 921.0 1094.0 921.0 1094.0 1129.0 1095.0 1129.0 1096.0 1130.0 1538.0 1130.0 1538.0 1129.0 1539.0 1128.0 1540.0 1128.0 1540.0 921.0 1539.0 920.0 1539.0 919.0 Z" fill="none" stroke="blue" stroke-width="3"/><path d="M116.0 1722.0 115.0 1723.0 108.0 1723.0 107.0 1724.0 101.0 1724.0 100.0 1725.0 96.0 1725.0 95.0 1726.0 91.0 1726.0 90.0 1727.0 87.0 1727.0 86.0 1728.0 84.0 1728.0 83.0 1729.0 80.0 1729.0 79.0 1730.0 77.0 1730.0 76.0 1731.0 74.0 1731.0 73.0 1732.0 71.0 1732.0 70.0 1733.0 67.0 1733.0 66.0 1734.0 65.0 1734.0 64.0 1735.0 62.0 1735.0 60.0 1737.0 59.0 1737.0 56.0 1740.0 55.0 1740.0 52.0 1743.0 51.0 1743.0 33.0 1761.0 33.0 1762.0 30.0 1765.0 30.0 1766.0 27.0 1769.0 27.0 1770.0 25.0 1772.0 25.0 1773.0 24.0 1774.0 24.0 1775.0 22.0 1777.0 22.0 1778.0 21.0 1779.0 21.0 1780.0 20.0 1781.0 20.0 1782.0 19.0 1783.0 19.0 1784.0 18.0 1785.0 18.0 1786.0 17.0 1787.0 17.0 1788.0 16.0 1789.0 16.0 1790.0 15.0 1791.0 15.0 1792.0 14.0 1793.0 14.0 1794.0 13.0 1795.0 13.0 1798.0 12.0 1799.0 12.0 1800.0 11.0 1801.0 11.0 1803.0 10.0 1804.0 10.0 1806.0 9.0 1807.0 9.0 1810.0 8.0 1811.0 8.0 1813.0 7.0 1814.0 7.0 1817.0 6.0 1818.0 6.0 1822.0 5.0 1823.0 5.0 1827.0 4.0 1828.0 4.0 1833.0 3.0 1834.0 3.0 1843.0 2.0 1844.0 2.0 1864.0 3.0 1865.0 3.0 1866.0 451.0 1866.0 451.0 1864.0 452.0 1863.0 452.0 1838.0 453.0 1837.0 453.0 1812.0 454.0 1811.0 454.0 1791.0 455.0 1790.0 455.0 1762.0 456.0 1761.0 456.0 1737.0 457.0 1736.0 457.0 1724.0 456.0 1723.0 456.0 1722.0 Z" fill="none" stroke="blue" stroke-width="3"/><path d="M645.0 919.0 644.0 920.0 644.0 1141.0 645.0 1141.0 646.0 1142.0 646.0 1143.0 1088.0 1143.0 1088.0 1142.0 1089.0 1141.0 1090.0 1141.0 1090.0 921.0 1089.0 921.0 1088.0 920.0 1088.0 919.0 Z" fill="none" stroke="blue" stroke-width="3"/><path d="M2107.0 2.0 2106.0 3.0 2080.0 3.0 2079.0 4.0 2057.0 4.0 2056.0 5.0 2040.0 5.0 2039.0 6.0 2023.0 6.0 2022.0 7.0 2008.0 7.0 2007.0 8.0 1995.0 8.0 1994.0 9.0 1983.0 9.0 1982.0 10.0 1971.0 10.0 1970.0 11.0 1960.0 11.0 1959.0 12.0 1950.0 12.0 1949.0 13.0 1941.0 13.0 1940.0 14.0 1932.0 14.0 1931.0 15.0 1923.0 15.0 1922.0 16.0 1915.0 16.0 1914.0 17.0 1908.0 17.0 1907.0 18.0 1900.0 18.0 1899.0 19.0 1893.0 19.0 1892.0 20.0 1886.0 20.0 1885.0 21.0 1879.0 21.0 1878.0 22.0 1872.0 22.0 1871.0 23.0 1866.0 23.0 1865.0 24.0 1859.0 24.0 1858.0 25.0 1853.0 25.0 1852.0 26.0 1846.0 26.0 1845.0 27.0 1840.0 27.0 1839.0 28.0 1834.0 28.0 1833.0 29.0 1828.0 29.0 1827.0 30.0 1822.0 30.0 1821.0 31.0 1817.0 31.0 1816.0 32.0 1813.0 32.0 1812.0 33.0 1809.0 33.0 1808.0 34.0 1804.0 34.0 1803.0 35.0 1800.0 35.0 1799.0 36.0 1795.0 36.0 1794.0 37.0 1791.0 37.0 1790.0 38.0 1786.0 38.0 1785.0 39.0 1782.0 39.0 1781.0 40.0 1777.0 40.0 1776.0 41.0 1773.0 41.0 1772.0 42.0 1768.0 42.0 1767.0 43.0 1764.0 43.0 1763.0 44.0 1759.0 44.0 1758.0 45.0 1755.0 45.0 1754.0 46.0 1750.0 46.0 1749.0 47.0 1746.0 47.0 1745.0 48.0 1741.0 48.0 1740.0 49.0 1736.0 49.0 1735.0 50.0 1732.0 50.0 1731.0 51.0 1727.0 51.0 1726.0 52.0 1723.0 52.0 1722.0 53.0 1718.0 53.0 1717.0 54.0 1713.0 54.0 1712.0 55.0 1709.0 55.0 1708.0 56.0 1704.0 56.0 1703.0 57.0 1699.0 57.0 1698.0 58.0 1695.0 58.0 1694.0 59.0 1690.0 59.0 1689.0 60.0 1685.0 60.0 1684.0 61.0 1680.0 61.0 1679.0 62.0 1676.0 62.0 1675.0 63.0 1671.0 63.0 1670.0 64.0 1666.0 64.0 1665.0 65.0 1661.0 65.0 1660.0 66.0 1657.0 66.0 1656.0 67.0 1652.0 67.0 1651.0 68.0 1647.0 68.0 1646.0 69.0 1642.0 69.0 1641.0 70.0 1638.0 70.0 1637.0 71.0 1633.0 71.0 1632.0 72.0 1628.0 72.0 1627.0 73.0 1623.0 73.0 1622.0 74.0 1618.0 74.0 1617.0 75.0 1613.0 75.0 1612.0 76.0 1609.0 76.0 1608.0 77.0 1604.0 77.0 1603.0 78.0 1599.0 78.0 1598.0 79.0 1594.0 79.0 1593.0 80.0 1589.0 80.0 1588.0 81.0 1584.0 81.0 1583.0 82.0 1579.0 82.0 1578.0 83.0 1574.0 83.0 1573.0 84.0 1569.0 84.0 1568.0 85.0 1564.0 85.0 1563.0 86.0 1559.0 86.0 1558.0 87.0 1554.0 87.0 1553.0 88.0 1549.0 88.0 1548.0 89.0 1544.0 89.0 1543.0 90.0 1539.0 90.0 1538.0 91.0 1534.0 91.0 1533.0 92.0 1529.0 92.0 1528.0 93.0 1524.0 93.0 1523.0 94.0 1519.0 94.0 1518.0 95.0 1514.0 95.0 1513.0 96.0 1509.0 96.0 1508.0 97.0 1504.0 97.0 1503.0 98.0 1499.0 98.0 1498.0 99.0 1494.0 99.0 1493.0 100.0 1489.0 100.0 1488.0 101.0 1483.0 101.0 1482.0 102.0 1478.0 102.0 1477.0 103.0 1473.0 103.0 1472.0 104.0 1468.0 104.0 1467.0 105.0 1463.0 105.0 1462.0 106.0 1458.0 106.0 1457.0 107.0 1453.0 107.0 1452.0 108.0 1447.0 108.0 1446.0 109.0 1442.0 109.0 1441.0 110.0 1437.0 110.0 1436.0 111.0 1432.0 111.0 1431.0 112.0 1426.0 112.0 1425.0 113.0 1421.0 113.0 1420.0 114.0 1416.0 114.0 1415.0 115.0 1411.0 115.0 1410.0 116.0 1405.0 116.0 1404.0 117.0 1400.0 117.0 1399.0 118.0 1395.0 118.0 1394.0 119.0 1390.0 119.0 1389.0 120.0 1384.0 120.0 1383.0 121.0 1379.0 121.0 1378.0 122.0 1374.0 122.0 1373.0 123.0 1368.0 123.0 1367.0 124.0 1363.0 124.0 1362.0 125.0 1357.0 125.0 1356.0 126.0 1352.0 126.0 1351.0 127.0 1347.0 127.0 1346.0 128.0 1341.0 128.0 1340.0 129.0 1336.0 129.0 1335.0 130.0 1330.0 130.0 1329.0 131.0 1325.0 131.0 1324.0 132.0 1319.0 132.0 1318.0 133.0 1314.0 133.0 1313.0 134.0 1308.0 134.0 1307.0 135.0 1303.0 135.0 1302.0 136.0 1297.0 136.0 1296.0 137.0 1291.0 137.0 1290.0 138.0 1284.0 138.0 1283.0 139.0 1278.0 139.0 1277.0 140.0 1271.0 140.0 1270.0 141.0 1265.0 141.0 1264.0 142.0 1258.0 142.0 1257.0 143.0 1252.0 143.0 1251.0 144.0 1245.0 144.0 1244.0 145.0 1238.0 145.0 1237.0 146.0 1231.0 146.0 1230.0 147.0 1224.0 147.0 1223.0 148.0 1217.0 148.0 1216.0 149.0 1210.0 149.0 1209.0 150.0 1203.0 150.0 1202.0 151.0 1195.0 151.0 1194.0 152.0 1188.0 152.0 1187.0 153.0 1180.0 153.0 1179.0 154.0 1172.0 154.0 1171.0 155.0 1164.0 155.0 1163.0 156.0 1156.0 156.0 1155.0 157.0 1148.0 157.0 1147.0 158.0 1140.0 158.0 1139.0 159.0 1132.0 159.0 1131.0 160.0 1124.0 160.0 1123.0 161.0 1115.0 161.0 1114.0 162.0 1106.0 162.0 1105.0 163.0 1098.0 163.0 1097.0 164.0 1089.0 164.0 1088.0 165.0 1079.0 165.0 1078.0 166.0 1070.0 166.0 1069.0 167.0 1061.0 167.0 1060.0 168.0 1053.0 168.0 1052.0 169.0 1044.0 169.0 1043.0 170.0 1036.0 170.0 1035.0 171.0 1027.0 171.0 1026.0 172.0 1020.0 172.0 1019.0 173.0 1010.0 173.0 1009.0 174.0 1001.0 174.0 1000.0 175.0 992.0 175.0 991.0 176.0 983.0 176.0 982.0 177.0 974.0 177.0 973.0 178.0 965.0 178.0 964.0 179.0 955.0 179.0 954.0 180.0 945.0 180.0 944.0 181.0 935.0 181.0 934.0 182.0 925.0 182.0 924.0 183.0 915.0 183.0 914.0 184.0 904.0 184.0 903.0 185.0 893.0 185.0 892.0 186.0 882.0 186.0 881.0 187.0 871.0 187.0 870.0 188.0 860.0 188.0 859.0 189.0 848.0 189.0 847.0 190.0 837.0 190.0 836.0 191.0 824.0 191.0 823.0 192.0 812.0 192.0 811.0 193.0 799.0 193.0 798.0 194.0 786.0 194.0 785.0 195.0 773.0 195.0 772.0 196.0 760.0 196.0 759.0 197.0 746.0 197.0 745.0 198.0 731.0 198.0 730.0 199.0 717.0 199.0 716.0 200.0 701.0 200.0 700.0 201.0 685.0 201.0 684.0 202.0 669.0 202.0 668.0 203.0 653.0 203.0 652.0 204.0 636.0 204.0 635.0 205.0 617.0 205.0 616.0 206.0 598.0 206.0 597.0 207.0 577.0 207.0 576.0 208.0 561.0 208.0 560.0 209.0 546.0 209.0 545.0 210.0 530.0 210.0 529.0 211.0 512.0 211.0 511.0 212.0 494.0 212.0 493.0 213.0 476.0 213.0 475.0 214.0 456.0 214.0 455.0 215.0 436.0 215.0 435.0 216.0 419.0 216.0 418.0 217.0 395.0 217.0 394.0 218.0 377.0 218.0 376.0 219.0 352.0 219.0 351.0 220.0 328.0 220.0 327.0 221.0 305.0 221.0 304.0 222.0 282.0 222.0 281.0 223.0 255.0 223.0 254.0 224.0 225.0 224.0 224.0 225.0 196.0 225.0 195.0 226.0 167.0 226.0 166.0 227.0 131.0 227.0 130.0 228.0 81.0 228.0 80.0 227.0 44.0 227.0 43.0 226.0 14.0 226.0 13.0 225.0 5.0 225.0 4.0 226.0 2.0 226.0 2.0 664.0 26.0 664.0 27.0 663.0 49.0 663.0 50.0 662.0 67.0 662.0 68.0 661.0 88.0 661.0 89.0 660.0 124.0 660.0 125.0 661.0 148.0 661.0 149.0 662.0 177.0 662.0 178.0 663.0 203.0 663.0 204.0 664.0 224.0 664.0 225.0 665.0 252.0 665.0 253.0 666.0 274.0 666.0 275.0 667.0 301.0 667.0 302.0 668.0 324.0 668.0 325.0 669.0 348.0 669.0 349.0 670.0 371.0 670.0 372.0 671.0 392.0 671.0 393.0 672.0 418.0 672.0 419.0 673.0 440.0 673.0 441.0 674.0 460.0 674.0 461.0 675.0 485.0 675.0 486.0 676.0 508.0 676.0 509.0 677.0 528.0 677.0 529.0 678.0 551.0 678.0 552.0 679.0 573.0 679.0 574.0 680.0 594.0 680.0 595.0 681.0 616.0 681.0 617.0 682.0 638.0 682.0 639.0 683.0 659.0 683.0 660.0 684.0 680.0 684.0 681.0 685.0 698.0 685.0 699.0 686.0 721.0 686.0 722.0 687.0 742.0 687.0 743.0 688.0 763.0 688.0 764.0 689.0 783.0 689.0 784.0 690.0 802.0 690.0 803.0 691.0 822.0 691.0 823.0 692.0 844.0 692.0 845.0 693.0 864.0 693.0 865.0 694.0 884.0 694.0 885.0 695.0 904.0 695.0 905.0 696.0 923.0 696.0 924.0 697.0 943.0 697.0 944.0 698.0 960.0 698.0 961.0 699.0 981.0 699.0 982.0 700.0 1000.0 700.0 1001.0 701.0 1019.0 701.0 1020.0 702.0 1034.0 702.0 1035.0 703.0 1048.0 703.0 1049.0 704.0 1059.0 704.0 1060.0 705.0 1071.0 705.0 1072.0 706.0 1081.0 706.0 1082.0 707.0 1091.0 707.0 1092.0 708.0 1101.0 708.0 1102.0 709.0 1110.0 709.0 1111.0 710.0 1119.0 710.0 1120.0 711.0 1128.0 711.0 1129.0 712.0 1136.0 712.0 1137.0 713.0 1144.0 713.0 1145.0 714.0 1152.0 714.0 1153.0 715.0 1159.0 715.0 1160.0 716.0 1167.0 716.0 1168.0 717.0 1174.0 717.0 1175.0 718.0 1181.0 718.0 1182.0 719.0 1188.0 719.0 1189.0 720.0 1195.0 720.0 1196.0 721.0 1202.0 721.0 1203.0 722.0 1208.0 722.0 1209.0 723.0 1214.0 723.0 1215.0 724.0 1221.0 724.0 1222.0 725.0 1227.0 725.0 1228.0 726.0 1233.0 726.0 1234.0 727.0 1239.0 727.0 1240.0 728.0 1245.0 728.0 1246.0 729.0 1251.0 729.0 1252.0 730.0 1257.0 730.0 1258.0 731.0 1263.0 731.0 1264.0 732.0 1268.0 732.0 1269.0 733.0 1274.0 733.0 1275.0 734.0 1279.0 734.0 1280.0 735.0 1285.0 735.0 1286.0 736.0 1290.0 736.0 1291.0 737.0 1295.0 737.0 1296.0 738.0 1301.0 738.0 1302.0 739.0 1306.0 739.0 1307.0 740.0 1311.0 740.0 1312.0 741.0 1316.0 741.0 1317.0 742.0 1321.0 742.0 1322.0 743.0 1326.0 743.0 1327.0 744.0 1331.0 744.0 1332.0 745.0 1336.0 745.0 1337.0 746.0 1341.0 746.0 1342.0 747.0 1346.0 747.0 1347.0 748.0 1351.0 748.0 1352.0 749.0 1356.0 749.0 1357.0 750.0 1360.0 750.0 1361.0 751.0 1365.0 751.0 1366.0 752.0 1370.0 752.0 1371.0 753.0 1374.0 753.0 1375.0 754.0 1379.0 754.0 1380.0 755.0 1384.0 755.0 1385.0 756.0 1388.0 756.0 1389.0 757.0 1392.0 757.0 1393.0 758.0 1397.0 758.0 1398.0 759.0 1401.0 759.0 1402.0 760.0 1406.0 760.0 1407.0 761.0 1410.0 761.0 1411.0 762.0 1414.0 762.0 1415.0 763.0 1419.0 763.0 1420.0 764.0 1423.0 764.0 1424.0 765.0 1427.0 765.0 1428.0 766.0 1431.0 766.0 1432.0 767.0 1436.0 767.0 1437.0 768.0 1440.0 768.0 1441.0 769.0 1444.0 769.0 1445.0 770.0 1448.0 770.0 1449.0 771.0 1452.0 771.0 1453.0 772.0 1456.0 772.0 1457.0 773.0 1460.0 773.0 1461.0 774.0 1464.0 774.0 1465.0 775.0 1468.0 775.0 1469.0 776.0 1472.0 776.0 1473.0 777.0 1476.0 777.0 1477.0 778.0 1480.0 778.0 1481.0 779.0 1484.0 779.0 1485.0 780.0 1488.0 780.0 1489.0 781.0 1491.0 781.0 1492.0 782.0 1495.0 782.0 1496.0 783.0 1499.0 783.0 1500.0 784.0 1503.0 784.0 1504.0 785.0 1507.0 785.0 1508.0 786.0 1510.0 786.0 1511.0 787.0 1514.0 787.0 1515.0 788.0 1518.0 788.0 1519.0 789.0 1521.0 789.0 1522.0 790.0 1525.0 790.0 1526.0 791.0 1528.0 791.0 1529.0 792.0 1532.0 792.0 1533.0 793.0 1535.0 793.0 1536.0 794.0 1539.0 794.0 1540.0 795.0 1542.0 795.0 1543.0 796.0 1546.0 796.0 1547.0 797.0 1549.0 797.0 1550.0 798.0 1552.0 798.0 1553.0 799.0 1555.0 799.0 1556.0 800.0 1558.0 800.0 1559.0 801.0 1562.0 801.0 1563.0 802.0 1565.0 802.0 1566.0 803.0 1568.0 803.0 1569.0 804.0 1571.0 804.0 1572.0 805.0 1574.0 805.0 1575.0 806.0 1577.0 806.0 1578.0 807.0 1580.0 807.0 1581.0 808.0 1583.0 808.0 1584.0 809.0 1586.0 809.0 1587.0 810.0 1589.0 810.0 1590.0 811.0 1592.0 811.0 1593.0 812.0 1595.0 812.0 1596.0 813.0 1598.0 813.0 1599.0 814.0 1601.0 814.0 1602.0 815.0 1604.0 815.0 1605.0 816.0 1607.0 816.0 1608.0 817.0 1609.0 817.0 1610.0 818.0 1613.0 818.0 1614.0 819.0 1616.0 819.0 1617.0 820.0 1619.0 820.0 1620.0 821.0 1622.0 821.0 1623.0 822.0 1625.0 822.0 1626.0 823.0 1628.0 823.0 1629.0 824.0 1631.0 824.0 1632.0 825.0 1633.0 825.0 1634.0 826.0 1636.0 826.0 1637.0 827.0 1639.0 827.0 1640.0 828.0 1642.0 828.0 1643.0 829.0 1645.0 829.0 1646.0 830.0 1648.0 830.0 1649.0 831.0 1651.0 831.0 1652.0 832.0 1654.0 832.0 1655.0 833.0 1657.0 833.0 1658.0 834.0 1659.0 834.0 1660.0 835.0 1662.0 835.0 1663.0 836.0 1665.0 836.0 1666.0 837.0 1667.0 837.0 1668.0 838.0 1670.0 838.0 1671.0 839.0 1674.0 839.0 1675.0 840.0 1676.0 840.0 1677.0 841.0 1679.0 841.0 1680.0 842.0 1682.0 842.0 1683.0 843.0 1684.0 843.0 1685.0 844.0 1688.0 844.0 1689.0 845.0 1691.0 845.0 1692.0 846.0 1693.0 846.0 1694.0 847.0 1696.0 847.0 1697.0 848.0 1698.0 848.0 1699.0 849.0 1702.0 849.0 1703.0 850.0 1704.0 850.0 1705.0 851.0 1707.0 851.0 1708.0 852.0 1709.0 852.0 1710.0 853.0 1713.0 853.0 1714.0 854.0 1716.0 854.0 1717.0 855.0 1718.0 855.0 1719.0 856.0 1720.0 856.0 1721.0 857.0 1724.0 857.0 1725.0 858.0 1727.0 858.0 1728.0 859.0 1729.0 859.0 1730.0 860.0 1731.0 860.0 1732.0 861.0 1734.0 861.0 1735.0 862.0 1737.0 862.0 1738.0 863.0 1740.0 863.0 1741.0 864.0 1742.0 864.0 1743.0 865.0 1743.0 866.0 1744.0 866.0 1745.0 867.0 1747.0 867.0 1748.0 868.0 1749.0 868.0 1750.0 869.0 1756.0 869.0 1757.0 870.0 1759.0 870.0 1760.0 871.0 1761.0 871.0 1762.0 872.0 1765.0 872.0 1766.0 873.0 1767.0 873.0 1768.0 874.0 1769.0 874.0 1770.0 875.0 1773.0 875.0 1774.0 876.0 1775.0 876.0 1776.0 877.0 1777.0 877.0 1778.0 878.0 1781.0 878.0 1782.0 879.0 1783.0 879.0 1784.0 880.0 1785.0 880.0 1786.0 881.0 1789.0 881.0 1790.0 882.0 1791.0 882.0 1792.0 883.0 1793.0 883.0 1794.0 884.0 1797.0 884.0 1798.0 885.0 1799.0 885.0 1800.0 886.0 1801.0 886.0 1802.0 887.0 1804.0 887.0 1805.0 888.0 1806.0 888.0 1807.0 889.0 1810.0 889.0 1811.0 890.0 1812.0 890.0 1813.0 891.0 1814.0 891.0 1815.0 892.0 1818.0 892.0 1819.0 893.0 1820.0 893.0 1821.0 894.0 1823.0 894.0 1824.0 895.0 1825.0 895.0 1826.0 896.0 1827.0 896.0 1828.0 897.0 1831.0 897.0 1832.0 898.0 1833.0 898.0 1834.0 899.0 1836.0 899.0 1837.0 900.0 1838.0 900.0 1839.0 901.0 1840.0 901.0 1841.0 902.0 1843.0 902.0 1844.0 903.0 1845.0 903.0 1846.0 904.0 1849.0 904.0 1850.0 905.0 1851.0 905.0 1852.0 906.0 1854.0 906.0 1855.0 907.0 1856.0 907.0 1857.0 908.0 1858.0 908.0 1859.0 909.0 1861.0 909.0 1862.0 910.0 1863.0 910.0 1864.0 911.0 1866.0 911.0 1867.0 912.0 1868.0 912.0 1869.0 913.0 1871.0 913.0 1872.0 914.0 1874.0 914.0 1875.0 915.0 1881.0 915.0 1881.0 913.0 1882.0 912.0 1882.0 906.0 1883.0 905.0 1883.0 900.0 1884.0 899.0 1884.0 894.0 1885.0 893.0 1885.0 889.0 1886.0 888.0 1886.0 884.0 1887.0 883.0 1887.0 879.0 1888.0 878.0 1888.0 874.0 1889.0 873.0 1889.0 870.0 1890.0 869.0 1890.0 865.0 1891.0 864.0 1891.0 861.0 1892.0 860.0 1892.0 857.0 1893.0 856.0 1893.0 853.0 1894.0 852.0 1894.0 849.0 1895.0 848.0 1895.0 846.0 1896.0 845.0 1896.0 842.0 1897.0 841.0 1897.0 839.0 1898.0 838.0 1898.0 835.0 1899.0 834.0 1899.0 832.0 1900.0 831.0 1900.0 829.0 1901.0 828.0 1901.0 825.0 1902.0 824.0 1902.0 822.0 1903.0 821.0 1903.0 819.0 1904.0 818.0 1904.0 816.0 1905.0 815.0 1905.0 813.0 1906.0 812.0 1906.0 810.0 1907.0 809.0 1907.0 808.0 1908.0 807.0 1908.0 806.0 1909.0 805.0 1909.0 802.0 1910.0 801.0 1910.0 800.0 1911.0 799.0 1911.0 798.0 1912.0 797.0 1912.0 795.0 1913.0 794.0 1913.0 793.0 1914.0 792.0 1914.0 790.0 1915.0 789.0 1915.0 788.0 1916.0 787.0 1916.0 785.0 1917.0 784.0 1917.0 783.0 1918.0 782.0 1918.0 781.0 1919.0 780.0 1919.0 779.0 1920.0 778.0 1920.0 776.0 1921.0 775.0 1921.0 774.0 1922.0 773.0 1922.0 772.0 1923.0 771.0 1923.0 770.0 1924.0 769.0 1924.0 768.0 1925.0 767.0 1925.0 766.0 1926.0 765.0 1926.0 764.0 1927.0 763.0 1927.0 762.0 1928.0 761.0 1928.0 760.0 1929.0 759.0 1929.0 758.0 1930.0 757.0 1930.0 756.0 1931.0 755.0 1931.0 754.0 1932.0 753.0 1932.0 752.0 1933.0 751.0 1933.0 750.0 1934.0 749.0 1934.0 748.0 1936.0 746.0 1936.0 745.0 1937.0 744.0 1937.0 743.0 1938.0 742.0 1938.0 741.0 1940.0 739.0 1940.0 738.0 1941.0 737.0 1941.0 736.0 1943.0 734.0 1943.0 733.0 1944.0 732.0 1944.0 731.0 1946.0 729.0 1946.0 728.0 1948.0 726.0 1948.0 725.0 1950.0 723.0 1950.0 722.0 1952.0 720.0 1952.0 719.0 1955.0 716.0 1955.0 715.0 1957.0 713.0 1957.0 712.0 1961.0 708.0 1961.0 707.0 1964.0 704.0 1964.0 703.0 1969.0 698.0 1969.0 697.0 1987.0 679.0 1988.0 679.0 1992.0 675.0 1993.0 675.0 1996.0 672.0 1997.0 672.0 2000.0 669.0 2001.0 669.0 2003.0 667.0 2004.0 667.0 2006.0 665.0 2007.0 665.0 2008.0 664.0 2009.0 664.0 2011.0 662.0 2012.0 662.0 2013.0 661.0 2014.0 661.0 2016.0 659.0 2017.0 659.0 2018.0 658.0 2019.0 658.0 2020.0 657.0 2021.0 657.0 2022.0 656.0 2023.0 656.0 2025.0 654.0 2026.0 654.0 2027.0 653.0 2028.0 653.0 2029.0 652.0 2030.0 652.0 2031.0 651.0 2032.0 651.0 2033.0 650.0 2034.0 650.0 2035.0 649.0 2037.0 649.0 2038.0 648.0 2039.0 648.0 2040.0 647.0 2041.0 647.0 2042.0 646.0 2043.0 646.0 2044.0 645.0 2045.0 645.0 2046.0 644.0 2048.0 644.0 2049.0 643.0 2050.0 643.0 2051.0 642.0 2053.0 642.0 2055.0 640.0 2058.0 640.0 2059.0 639.0 2060.0 639.0 2061.0 638.0 2062.0 638.0 2063.0 637.0 2065.0 637.0 2066.0 636.0 2068.0 636.0 2069.0 635.0 2071.0 635.0 2072.0 634.0 2073.0 634.0 2074.0 633.0 2076.0 633.0 2077.0 632.0 2079.0 632.0 2080.0 631.0 2083.0 631.0 2084.0 630.0 2086.0 630.0 2087.0 629.0 2089.0 629.0 2090.0 628.0 2092.0 628.0 2093.0 627.0 2096.0 627.0 2097.0 626.0 2100.0 626.0 2101.0 625.0 2103.0 625.0 2104.0 624.0 2107.0 624.0 2108.0 623.0 2111.0 623.0 2112.0 622.0 2116.0 622.0 2117.0 621.0 2122.0 621.0 2123.0 620.0 2129.0 620.0 2130.0 619.0 2137.0 619.0 2138.0 618.0 2144.0 618.0 2145.0 617.0 2152.0 617.0 2153.0 616.0 2160.0 616.0 2161.0 615.0 2168.0 615.0 2169.0 614.0 2176.0 614.0 2177.0 613.0 2184.0 613.0 2185.0 612.0 2192.0 612.0 2193.0 611.0 2200.0 611.0 2201.0 610.0 2209.0 610.0 2210.0 609.0 2218.0 609.0 2219.0 608.0 2226.0 608.0 2227.0 607.0 2235.0 607.0 2236.0 606.0 2244.0 606.0 2245.0 605.0 2253.0 605.0 2254.0 604.0 2262.0 604.0 2263.0 603.0 2271.0 603.0 2272.0 602.0 2281.0 602.0 2282.0 601.0 2290.0 601.0 2291.0 600.0 2300.0 600.0 2301.0 599.0 2310.0 599.0 2311.0 598.0 2320.0 598.0 2321.0 597.0 2330.0 597.0 2331.0 596.0 2340.0 596.0 2341.0 595.0 2351.0 595.0 2352.0 594.0 2361.0 594.0 2362.0 593.0 2372.0 593.0 2373.0 592.0 2383.0 592.0 2384.0 591.0 2394.0 591.0 2395.0 590.0 2405.0 590.0 2406.0 589.0 2417.0 589.0 2418.0 588.0 2428.0 588.0 2429.0 587.0 2440.0 587.0 2441.0 586.0 2453.0 586.0 2454.0 585.0 2466.0 585.0 2467.0 584.0 2477.0 584.0 2479.0 582.0 2479.0 575.0 2478.0 574.0 2478.0 565.0 2477.0 564.0 2477.0 555.0 2476.0 554.0 2476.0 546.0 2475.0 545.0 2475.0 536.0 2474.0 535.0 2474.0 527.0 2473.0 526.0 2473.0 517.0 2472.0 516.0 2472.0 508.0 2471.0 507.0 2471.0 500.0 2470.0 499.0 2470.0 491.0 2469.0 490.0 2469.0 482.0 2468.0 481.0 2468.0 474.0 2467.0 473.0 2467.0 465.0 2466.0 464.0 2466.0 457.0 2465.0 456.0 2465.0 449.0 2464.0 448.0 2464.0 441.0 2463.0 440.0 2463.0 433.0 2462.0 432.0 2462.0 425.0 2461.0 424.0 2461.0 417.0 2460.0 416.0 2460.0 410.0 2459.0 409.0 2459.0 402.0 2458.0 401.0 2458.0 395.0 2457.0 394.0 2457.0 387.0 2456.0 386.0 2456.0 380.0 2455.0 379.0 2455.0 373.0 2454.0 372.0 2454.0 365.0 2453.0 364.0 2453.0 358.0 2452.0 357.0 2452.0 351.0 2451.0 350.0 2451.0 344.0 2450.0 343.0 2450.0 337.0 2449.0 336.0 2449.0 330.0 2448.0 329.0 2448.0 323.0 2447.0 322.0 2447.0 316.0 2446.0 315.0 2446.0 309.0 2445.0 308.0 2445.0 303.0 2444.0 302.0 2444.0 296.0 2443.0 295.0 2443.0 289.0 2442.0 288.0 2442.0 283.0 2441.0 282.0 2441.0 276.0 2440.0 275.0 2440.0 270.0 2439.0 269.0 2439.0 263.0 2438.0 262.0 2438.0 256.0 2437.0 255.0 2437.0 250.0 2436.0 249.0 2436.0 244.0 2435.0 243.0 2435.0 237.0 2434.0 236.0 2434.0 231.0 2433.0 230.0 2433.0 225.0 2432.0 224.0 2432.0 219.0 2431.0 218.0 2431.0 213.0 2430.0 212.0 2430.0 206.0 2429.0 205.0 2429.0 200.0 2428.0 199.0 2428.0 194.0 2427.0 193.0 2427.0 188.0 2426.0 187.0 2426.0 182.0 2425.0 181.0 2425.0 176.0 2424.0 175.0 2424.0 170.0 2423.0 169.0 2423.0 164.0 2422.0 163.0 2422.0 158.0 2421.0 157.0 2421.0 152.0 2420.0 151.0 2420.0 147.0 2419.0 146.0 2419.0 141.0 2418.0 140.0 2418.0 135.0 2417.0 134.0 2417.0 129.0 2416.0 128.0 2416.0 124.0 2415.0 123.0 2415.0 118.0 2414.0 117.0 2414.0 112.0 2413.0 111.0 2413.0 107.0 2412.0 106.0 2412.0 101.0 2411.0 100.0 2411.0 95.0 2410.0 94.0 2410.0 90.0 2409.0 89.0 2409.0 84.0 2408.0 83.0 2408.0 79.0 2407.0 78.0 2407.0 73.0 2406.0 72.0 2406.0 68.0 2405.0 67.0 2405.0 63.0 2404.0 62.0 2404.0 57.0 2403.0 56.0 2403.0 52.0 2402.0 51.0 2402.0 47.0 2401.0 46.0 2401.0 41.0 2400.0 40.0 2400.0 36.0 2399.0 35.0 2399.0 31.0 2398.0 30.0 2398.0 26.0 2397.0 25.0 2397.0 21.0 2396.0 20.0 2396.0 17.0 2395.0 17.0 2394.0 16.0 2390.0 16.0 2389.0 15.0 2383.0 15.0 2382.0 14.0 2375.0 14.0 2374.0 13.0 2367.0 13.0 2366.0 12.0 2359.0 12.0 2358.0 11.0 2350.0 11.0 2349.0 10.0 2341.0 10.0 2340.0 9.0 2330.0 9.0 2329.0 8.0 2319.0 8.0 2318.0 7.0 2307.0 7.0 2306.0 6.0 2293.0 6.0 2292.0 5.0 2276.0 5.0 2275.0 4.0 2258.0 4.0 2257.0 3.0 2232.0 3.0 2231.0 2.0 Z" fill="none" stroke="blue" stroke-width="3"/><path d="M4.0 1293.0 4.0 1294.0 3.0 1295.0 2.0 1295.0 2.0 1556.0 3.0 1556.0 4.0 1557.0 454.0 1557.0 454.0 1556.0 455.0 1555.0 456.0 1555.0 456.0 1295.0 455.0 1295.0 454.0 1294.0 454.0 1293.0 Z" fill="none" stroke="blue" stroke-width="3"/></svg>